<svg width="2700" height="1440" viewBox="0 0 1200 800" xmlns="http://www.w3.org/2000/svg" preserveAspectRatio="xMidYMid meet">
  <defs>
    <linearGradient id="bgGradient" x1="0%" y1="0%" x2="100%" y2="100%">
      <stop offset="0%" style="stop-color:#f8fafc;stop-opacity:1" />
      <stop offset="100%" style="stop-color:#e2e8f0;stop-opacity:1" />
    </linearGradient>
  </defs>
  
  <!-- Background -->
  <rect width="1200" height="800" fill="url(#bgGradient)"/>
  
  <!-- Header -->
  <rect x="0" y="0" width="1200" height="80" fill="#ffffff" stroke="#e2e8f0" stroke-width="1"/>
  <text x="40" y="50" font-family="Inter, sans-serif" font-size="24" font-weight="600" fill="#1e293b">TeddyBridge</text>
  <text x="1000" y="50" font-family="Inter, sans-serif" font-size="16" fill="#64748b">PROMS Dashboard</text>
  
  <!-- Stats Row -->
  <g>
    <rect x="40" y="100" width="260" height="120" fill="#ffffff" rx="8" stroke="#e2e8f0" stroke-width="1"/>
    <text x="60" y="130" font-family="Inter, sans-serif" font-size="14" fill="#64748b">Total Patients</text>
    <text x="60" y="160" font-family="Inter, sans-serif" font-size="32" font-weight="700" fill="#3b82f6">142</text>
    <text x="60" y="180" font-family="Inter, sans-serif" font-size="12" fill="#10b981">↑ 12% this month</text>
    
    <rect x="320" y="100" width="260" height="120" fill="#ffffff" rx="8" stroke="#e2e8f0" stroke-width="1"/>
    <text x="340" y="130" font-family="Inter, sans-serif" font-size="14" fill="#64748b">Pending PROMS</text>
    <text x="340" y="160" font-family="Inter, sans-serif" font-size="32" font-weight="700" fill="#f59e0b">28</text>
    <text x="340" y="180" font-family="Inter, sans-serif" font-size="12" fill="#64748b">Requires attention</text>
    
    <rect x="600" y="100" width="260" height="120" fill="#ffffff" rx="8" stroke="#e2e8f0" stroke-width="1"/>
    <text x="620" y="130" font-family="Inter, sans-serif" font-size="14" fill="#64748b">Completed Surveys</text>
    <text x="620" y="160" font-family="Inter, sans-serif" font-size="32" font-weight="700" fill="#10b981">89</text>
    <text x="620" y="180" font-family="Inter, sans-serif" font-size="12" fill="#10b981">↑ 8% this week</text>
    
    <rect x="880" y="100" width="260" height="120" fill="#ffffff" rx="8" stroke="#e2e8f0" stroke-width="1"/>
    <text x="900" y="130" font-family="Inter, sans-serif" font-size="14" fill="#64748b">Active Calls</text>
    <text x="900" y="160" font-family="Inter, sans-serif" font-size="32" font-weight="700" fill="#8b5cf6">5</text>
    <text x="900" y="180" font-family="Inter, sans-serif" font-size="12" fill="#64748b">In progress</text>
  </g>
  
  <!-- PROMS Table -->
  <rect x="40" y="240" width="1120" height="520" fill="#ffffff" rx="12" stroke="#e2e8f0" stroke-width="1"/>
  
  <!-- Table Header -->
  <rect x="40" y="240" width="1120" height="50" fill="#f8fafc" rx="12"/>
  <text x="60" y="270" font-family="Inter, sans-serif" font-size="14" font-weight="600" fill="#475569">Patient Name</text>
  <text x="280" y="270" font-family="Inter, sans-serif" font-size="14" font-weight="600" fill="#475569">Pre-Op Score</text>
  <text x="420" y="270" font-family="Inter, sans-serif" font-size="14" font-weight="600" fill="#475569">Post-Op Score</text>
  <text x="580" y="270" font-family="Inter, sans-serif" font-size="14" font-weight="600" fill="#475569">Status</text>
  <text x="720" y="270" font-family="Inter, sans-serif" font-size="14" font-weight="600" fill="#475569">Last Updated</text>
  <text x="920" y="270" font-family="Inter, sans-serif" font-size="14" font-weight="600" fill="#475569">Actions</text>
  
  <!-- Table Rows -->
  <g>
    <!-- Row 1 -->
    <line x1="40" y1="290" x2="1160" y2="290" stroke="#e2e8f0" stroke-width="1"/>
    <circle cx="80" cy="320" r="20" fill="#3b82f6"/>
    <text x="110" y="315" font-family="Inter, sans-serif" font-size="14" font-weight="600" fill="#1e293b">John D.</text>
    <text x="110" y="335" font-family="Inter, sans-serif" font-size="12" fill="#64748b">Age 65, Hip Replacement</text>
    <text x="280" y="325" font-family="Inter, sans-serif" font-size="14" font-weight="600" fill="#1e293b">42</text>
    <text x="420" y="325" font-family="Inter, sans-serif" font-size="14" font-weight="600" fill="#10b981">78</text>
    <rect x="580" y="305" width="80" height="24" fill="#10b981" rx="4"/>
    <text x="605" y="320" font-family="Inter, sans-serif" font-size="11" font-weight="500" fill="#ffffff">Completed</text>
    <text x="720" y="325" font-family="Inter, sans-serif" font-size="12" fill="#64748b">2 days ago</text>
    <rect x="920" y="305" width="60" height="28" fill="#3b82f6" rx="4"/>
    <text x="940" y="322" font-family="Inter, sans-serif" font-size="11" font-weight="500" fill="#ffffff">View</text>
    
    <!-- Row 2 -->
    <line x1="40" y1="350" x2="1160" y2="350" stroke="#e2e8f0" stroke-width="1"/>
    <circle cx="80" cy="380" r="20" fill="#8b5cf6"/>
    <text x="110" y="375" font-family="Inter, sans-serif" font-size="14" font-weight="600" fill="#1e293b">Sarah M.</text>
    <text x="110" y="395" font-family="Inter, sans-serif" font-size="12" fill="#64748b">Age 58, Knee Replacement</text>
    <text x="280" y="385" font-family="Inter, sans-serif" font-size="14" font-weight="600" fill="#1e293b">38</text>
    <text x="420" y="385" font-family="Inter, sans-serif" font-size="14" font-weight="600" fill="#f59e0b">Pending</text>
    <rect x="580" y="365" width="80" height="24" fill="#fbbf24" rx="4"/>
    <text x="600" y="380" font-family="Inter, sans-serif" font-size="11" font-weight="500" fill="#92400e">In Progress</text>
    <text x="720" y="385" font-family="Inter, sans-serif" font-size="12" fill="#64748b">5 days ago</text>
    <rect x="920" y="365" width="60" height="28" fill="#3b82f6" rx="4"/>
    <text x="940" y="382" font-family="Inter, sans-serif" font-size="11" font-weight="500" fill="#ffffff">View</text>
    
    <!-- Row 3 -->
    <line x1="40" y1="410" x2="1160" y2="410" stroke="#e2e8f0" stroke-width="1"/>
    <circle cx="80" cy="440" r="20" fill="#f59e0b"/>
    <text x="110" y="435" font-family="Inter, sans-serif" font-size="14" font-weight="600" fill="#1e293b">Mike R.</text>
    <text x="110" y="455" font-family="Inter, sans-serif" font-size="12" fill="#64748b">Age 72, Shoulder Replacement</text>
    <text x="280" y="445" font-family="Inter, sans-serif" font-size="14" font-weight="600" fill="#1e293b">45</text>
    <text x="420" y="445" font-family="Inter, sans-serif" font-size="14" font-weight="600" fill="#10b981">82</text>
    <rect x="580" y="425" width="80" height="24" fill="#10b981" rx="4"/>
    <text x="605" y="440" font-family="Inter, sans-serif" font-size="11" font-weight="500" fill="#ffffff">Completed</text>
    <text x="720" y="445" font-family="Inter, sans-serif" font-size="12" fill="#64748b">1 week ago</text>
    <rect x="920" y="425" width="60" height="28" fill="#3b82f6" rx="4"/>
    <text x="940" y="442" font-family="Inter, sans-serif" font-size="11" font-weight="500" fill="#ffffff">View</text>
    
    <!-- Row 4 -->
    <line x1="40" y1="470" x2="1160" y2="470" stroke="#e2e8f0" stroke-width="1"/>
    <circle cx="80" cy="500" r="20" fill="#10b981"/>
    <text x="110" y="495" font-family="Inter, sans-serif" font-size="14" font-weight="600" fill="#1e293b">Emily T.</text>
    <text x="110" y="515" font-family="Inter, sans-serif" font-size="12" fill="#64748b">Age 61, Hip Replacement</text>
    <text x="280" y="505" font-family="Inter, sans-serif" font-size="14" font-weight="600" fill="#1e293b">40</text>
    <text x="420" y="505" font-family="Inter, sans-serif" font-size="14" font-weight="600" fill="#64748b">Not Started</text>
    <rect x="580" y="485" width="80" height="24" fill="#e2e8f0" rx="4"/>
    <text x="600" y="500" font-family="Inter, sans-serif" font-size="11" font-weight="500" fill="#64748b">Pending</text>
    <text x="720" y="505" font-family="Inter, sans-serif" font-size="12" fill="#64748b">3 days ago</text>
    <rect x="920" y="485" width="60" height="28" fill="#3b82f6" rx="4"/>
    <text x="940" y="502" font-family="Inter, sans-serif" font-size="11" font-weight="500" fill="#ffffff">Send</text>
  </g>
  
  <!-- Quick Actions -->
  <rect x="40" y="780" width="1120" height="20" fill="#f8fafc" rx="8"/>
  <text x="60" y="795" font-family="Inter, sans-serif" font-size="12" fill="#64748b">Quick Actions: Send Survey | Schedule Call | Generate Report</text>
</svg>

